# xmcd CD database file
#
# Track frame offsets:
#	150
#	25213
#	43345
#	57763
#	82117
#	101813
#	122485
#	152905
#
# Disc length: 2289 seconds
#
# Revision: 0
# Processed by: cddbd v1.5.1PL2 Copyright (c) Steve Scherf et al.
# Submitted via: CDex 1.51
#
DISCID=6708ef08
DTITLE=Charlie Mariano - Charlie Mariano
DYEAR=1955
DGENRE=Jazz
TTITLE0=Johnny One Note
TTITLE1=The Very Thought Of You
TTITLE2=Smoke Get's In Your Eyes
TTITLE3=King For A Day
TTITLE4=Darn That Dream
TTITLE5=Floormat
TTITLE6=Blues (Traditional)
TTITLE7=I Heard You Cried Last Night
EXTD=YEAR: 1955
EXTT0=
EXTT1=
EXTT2=
EXTT3=
EXTT4=
EXTT5=
EXTT6=
EXTT7=
PLAYORDER=
